<?xml version="1.0" encoding="utf-8" standalone="no"?>
<!DOCTYPE svg PUBLIC "-//W3C//DTD SVG 1.1//EN"
  "http://www.w3.org/Graphics/SVG/1.1/DTD/svg11.dtd">
<!-- Created with matplotlib (https://matplotlib.org/) -->
<svg height="1728pt" version="1.1" viewBox="0 0 2160 1728" width="2160pt" xmlns="http://www.w3.org/2000/svg" xmlns:xlink="http://www.w3.org/1999/xlink">
 <metadata>
  <rdf:RDF xmlns:cc="http://creativecommons.org/ns#" xmlns:dc="http://purl.org/dc/elements/1.1/" xmlns:rdf="http://www.w3.org/1999/02/22-rdf-syntax-ns#">
   <cc:Work>
    <dc:type rdf:resource="http://purl.org/dc/dcmitype/StillImage"/>
    <dc:date>2021-05-05T20:34:47.451361</dc:date>
    <dc:format>image/svg+xml</dc:format>
    <dc:creator>
     <cc:Agent>
      <dc:title>Matplotlib v3.3.3, https://matplotlib.org/</dc:title>
     </cc:Agent>
    </dc:creator>
   </cc:Work>
  </rdf:RDF>
 </metadata>
 <defs>
  <style type="text/css">*{stroke-linecap:butt;stroke-linejoin:round;}</style>
 </defs>
 <g id="figure_1">
  <g id="patch_1">
   <path d="M 0 1728 
L 2160 1728 
L 2160 0 
L 0 0 
z
" style="fill:none;"/>
  </g>
  <g id="axes_1">
   <g id="patch_2">
    <path d="M 356.534286 285.1 
C 356.534286 268.197395 353.204841 251.459146 346.736494 235.843175 
C 340.268147 220.227204 330.786691 206.037202 318.834744 194.085256 
C 306.882798 182.133309 292.692796 172.651853 277.076825 166.183506 
C 261.460854 159.715159 244.722605 156.385714 227.82 156.385714 
C 210.917395 156.385714 194.179146 159.715159 178.563175 166.183506 
C 162.947204 172.651853 148.757202 182.133309 136.805256 194.085256 
C 124.853309 206.037202 115.371853 220.227204 108.903506 235.843175 
C 102.435159 251.459146 99.105714 268.197395 99.105714 285.1 
C 99.105714 302.002605 102.435159 318.740854 108.903506 334.356825 
C 115.371853 349.972796 124.853309 364.162798 136.805256 376.114744 
C 148.757202 388.066691 162.947204 397.548147 178.563175 404.016494 
C 194.179146 410.484841 210.917395 413.814286 227.82 413.814286 
C 244.722605 413.814286 261.460854 410.484841 277.076825 404.016494 
C 292.692796 397.548147 306.882798 388.066691 318.834744 376.114744 
C 330.786691 364.162798 340.268147 349.972796 346.736494 334.356825 
C 353.204841 318.740854 356.534286 302.002605 356.534286 285.1 
M 227.82 285.1 
M 356.534286 285.1 
z
" style="fill:#808080;stroke:#ffffff;stroke-linejoin:miter;stroke-width:5;"/>
   </g>
   <g id="patch_3">
    <path clip-path="url(#pd0ff24509e)" d="M 227.82 349.457143 
C 244.887714 349.457143 261.258676 342.676068 273.327372 330.607372 
C 285.396068 318.538676 292.177143 302.167714 292.177143 285.1 
C 292.177143 268.032286 285.396068 251.661324 273.327372 239.592628 
C 261.258676 227.523932 244.887714 220.742857 227.82 220.742857 
C 210.752286 220.742857 194.381324 227.523932 182.312628 239.592628 
C 170.243932 251.661324 163.462857 268.032286 163.462857 285.1 
C 163.462857 302.167714 170.243932 318.538676 182.312628 330.607372 
C 194.381324 342.676068 210.752286 349.457143 227.82 349.457143 
z
" style="fill:#ffffff;stroke:#ffffff;stroke-linejoin:miter;"/>
   </g>
   <g id="patch_4">
    <path clip-path="url(#pd0ff24509e)" d="M 60.491429 516.785714 
L 395.148571 516.785714 
L 395.148571 53.414286 
L 60.491429 53.414286 
z
" style="fill:none;stroke:#000000;stroke-linejoin:miter;stroke-width:3;"/>
   </g>
   <g id="matplotlib.axis_1"/>
   <g id="matplotlib.axis_2"/>
   <g id="text_1">
    <g clip-path="url(#pd0ff24509e)">
     <!-- 1 -->
     <g transform="translate(213.661429 303.12)scale(0.48 -0.48)">
      <defs>
       <path d="M 27.78125 0 
L 27.78125 51.5625 
L 13.234375 42.828125 
L 13.234375 55.03125 
Q 27.25 61.8125 35.40625 71.828125 
L 40.484375 71.828125 
L 40.484375 0 
z
" id="TrebuchetMS-Bold-49"/>
      </defs>
      <use xlink:href="#TrebuchetMS-Bold-49"/>
     </g>
    </g>
   </g>
  </g>
  <g id="axes_2">
   <g id="patch_5">
    <path d="M 786.374286 285.1 
C 786.374286 268.197395 783.044841 251.459146 776.576494 235.843175 
C 770.108147 220.227204 760.626691 206.037202 748.674744 194.085256 
C 736.722798 182.133309 722.532796 172.651853 706.916825 166.183506 
C 691.300854 159.715159 674.562605 156.385714 657.66 156.385714 
C 640.757395 156.385714 624.019146 159.715159 608.403175 166.183506 
C 592.787204 172.651853 578.597202 182.133309 566.645256 194.085256 
C 554.693309 206.037202 545.211853 220.227204 538.743506 235.843175 
C 532.275159 251.459146 528.945714 268.197395 528.945714 285.1 
C 528.945714 302.002605 532.275159 318.740854 538.743506 334.356825 
C 545.211853 349.972796 554.693309 364.162798 566.645256 376.114744 
C 578.597202 388.066691 592.787204 397.548147 608.403175 404.016494 
C 624.019146 410.484841 640.757395 413.814286 657.66 413.814286 
C 674.562605 413.814286 691.300854 410.484841 706.916825 404.016494 
C 722.532796 397.548147 736.722798 388.066691 748.674744 376.114744 
C 760.626691 364.162798 770.108147 349.972796 776.576494 334.356825 
C 783.044841 318.740854 786.374286 302.002605 786.374286 285.1 
M 657.66 285.1 
M 786.374286 285.1 
z
" style="fill:#fdac2b;stroke:#ffffff;stroke-linejoin:miter;stroke-width:5;"/>
   </g>
   <g id="patch_6">
    <path clip-path="url(#p6e29eff6f0)" d="M 657.66 349.457143 
C 674.727714 349.457143 691.098676 342.676068 703.167372 330.607372 
C 715.236068 318.538676 722.017143 302.167714 722.017143 285.1 
C 722.017143 268.032286 715.236068 251.661324 703.167372 239.592628 
C 691.098676 227.523932 674.727714 220.742857 657.66 220.742857 
C 640.592286 220.742857 624.221324 227.523932 612.152628 239.592628 
C 600.083932 251.661324 593.302857 268.032286 593.302857 285.1 
C 593.302857 302.167714 600.083932 318.538676 612.152628 330.607372 
C 624.221324 342.676068 640.592286 349.457143 657.66 349.457143 
z
" style="fill:#ffffff;stroke:#ffffff;stroke-linejoin:miter;"/>
   </g>
   <g id="patch_7">
    <path clip-path="url(#p6e29eff6f0)" d="M 490.331429 516.785714 
L 824.988571 516.785714 
L 824.988571 53.414286 
L 490.331429 53.414286 
z
" style="fill:none;stroke:#000000;stroke-linejoin:miter;stroke-width:3;"/>
   </g>
   <g id="matplotlib.axis_3"/>
   <g id="matplotlib.axis_4"/>
   <g id="text_2">
    <g clip-path="url(#p6e29eff6f0)">
     <!-- 2 -->
     <g transform="translate(643.501429 303.12)scale(0.48 -0.48)">
      <defs>
       <path d="M 7.5625 0 
L 7.5625 3.71875 
L 30.21875 37.0625 
Q 37.015625 47.078125 37.015625 53.90625 
Q 37.015625 62.015625 27.296875 62.015625 
Q 19.875 62.015625 15.328125 54.15625 
L 6.78125 60.890625 
Q 9.328125 66.015625 14.765625 69.40625 
Q 20.21875 72.796875 26.8125 72.796875 
Q 37.796875 72.796875 44 67.796875 
Q 50.203125 62.796875 50.203125 53.90625 
Q 50.203125 45.75 42.234375 33.59375 
L 27.59375 11.28125 
L 54.4375 11.28125 
L 54.4375 0 
z
" id="TrebuchetMS-Bold-50"/>
      </defs>
      <use xlink:href="#TrebuchetMS-Bold-50"/>
     </g>
    </g>
   </g>
  </g>
  <g id="axes_3">
   <g id="patch_8">
    <path d="M 1216.214286 285.1 
C 1216.214286 268.197395 1212.884841 251.459146 1206.416494 235.843175 
C 1199.948147 220.227204 1190.466691 206.037202 1178.514744 194.085256 
C 1166.562798 182.133309 1152.372796 172.651853 1136.756825 166.183506 
C 1121.140854 159.715159 1104.402605 156.385714 1087.5 156.385714 
C 1070.597395 156.385714 1053.859146 159.715159 1038.243175 166.183506 
C 1022.627204 172.651853 1008.437202 182.133309 996.485256 194.085256 
C 984.533309 206.037202 975.051853 220.227204 968.583506 235.843175 
C 962.115159 251.459146 958.785714 268.197395 958.785714 285.1 
C 958.785714 302.002605 962.115159 318.740854 968.583506 334.356825 
C 975.051853 349.972796 984.533309 364.162798 996.485256 376.114744 
C 1008.437202 388.066691 1022.627204 397.548147 1038.243175 404.016494 
C 1053.859146 410.484841 1070.597395 413.814286 1087.5 413.814286 
C 1104.402605 413.814286 1121.140854 410.484841 1136.756825 404.016494 
C 1152.372796 397.548147 1166.562798 388.066691 1178.514744 376.114744 
C 1190.466691 364.162798 1199.948147 349.972796 1206.416494 334.356825 
C 1212.884841 318.740854 1216.214286 302.002605 1216.214286 285.1 
M 1087.5 285.1 
M 1216.214286 285.1 
z
" style="fill:#82be5a;stroke:#ffffff;stroke-linejoin:miter;stroke-width:5;"/>
   </g>
   <g id="patch_9">
    <path clip-path="url(#pfd4c2209cb)" d="M 1087.5 349.457143 
C 1104.567714 349.457143 1120.938676 342.676068 1133.007372 330.607372 
C 1145.076068 318.538676 1151.857143 302.167714 1151.857143 285.1 
C 1151.857143 268.032286 1145.076068 251.661324 1133.007372 239.592628 
C 1120.938676 227.523932 1104.567714 220.742857 1087.5 220.742857 
C 1070.432286 220.742857 1054.061324 227.523932 1041.992628 239.592628 
C 1029.923932 251.661324 1023.142857 268.032286 1023.142857 285.1 
C 1023.142857 302.167714 1029.923932 318.538676 1041.992628 330.607372 
C 1054.061324 342.676068 1070.432286 349.457143 1087.5 349.457143 
z
" style="fill:#ffffff;stroke:#ffffff;stroke-linejoin:miter;"/>
   </g>
   <g id="patch_10">
    <path clip-path="url(#pfd4c2209cb)" d="M 920.171429 516.785714 
L 1254.828571 516.785714 
L 1254.828571 53.414286 
L 920.171429 53.414286 
z
" style="fill:none;stroke:#000000;stroke-linejoin:miter;stroke-width:3;"/>
   </g>
   <g id="matplotlib.axis_5"/>
   <g id="matplotlib.axis_6"/>
   <g id="text_3">
    <g clip-path="url(#pfd4c2209cb)">
     <!-- 3 -->
     <g transform="translate(1073.341429 303.12)scale(0.48 -0.48)">
      <defs>
       <path d="M 6.984375 6 
L 13.328125 15.828125 
Q 19 9.8125 25.640625 9.8125 
Q 37.75 9.8125 37.75 21.1875 
Q 37.75 26.375 34.234375 29.609375 
Q 30.71875 32.859375 24.75 32.859375 
L 22.515625 32.859375 
L 22.515625 43.3125 
L 24.421875 43.3125 
Q 35.359375 43.3125 35.359375 52.4375 
Q 35.359375 62.015625 25.140625 62.015625 
Q 19.875 62.015625 14.890625 57.03125 
L 8.9375 65.765625 
Q 11.234375 68.609375 16.109375 70.703125 
Q 21 72.796875 25.875 72.796875 
Q 36.578125 72.796875 42.546875 67.90625 
Q 48.53125 63.03125 48.53125 54.25 
Q 48.53125 43.796875 39.546875 38.328125 
Q 50.921875 32.859375 50.921875 20.453125 
Q 50.921875 10.25 44.15625 4.625 
Q 37.40625 -0.984375 25.484375 -0.984375 
Q 14.65625 -0.984375 6.984375 6 
z
" id="TrebuchetMS-Bold-51"/>
      </defs>
      <use xlink:href="#TrebuchetMS-Bold-51"/>
     </g>
    </g>
   </g>
  </g>
  <g id="axes_4">
   <g id="patch_11">
    <path d="M 1517.34 156.385714 
C 1483.215941 156.385714 1450.454609 169.955902 1426.325256 194.085256 
C 1402.195902 218.214609 1388.625714 250.975941 1388.625714 285.1 
C 1388.625714 319.224059 1402.195902 351.985391 1426.325256 376.114744 
C 1450.454609 400.244098 1483.215941 413.814286 1517.34 413.814286 
L 1517.34 285.1 
L 1517.34 156.385714 
z
" style="fill:#fdac2b;stroke:#ffffff;stroke-linejoin:miter;stroke-width:5;"/>
   </g>
   <g id="patch_12">
    <path d="M 1517.34 413.814286 
C 1551.464059 413.814286 1584.225391 400.244098 1608.354744 376.114744 
C 1632.484098 351.985391 1646.054286 319.224059 1646.054286 285.1 
C 1646.054286 250.975941 1632.484098 218.214609 1608.354744 194.085256 
C 1584.225391 169.955902 1551.464059 156.385714 1517.34 156.385714 
L 1517.34 285.1 
L 1517.34 413.814286 
z
" style="fill:#fdac2b;stroke:#ffffff;stroke-linejoin:miter;stroke-width:5;"/>
   </g>
   <g id="patch_13">
    <path clip-path="url(#p8a46375c5b)" d="M 1517.34 349.457143 
C 1534.407714 349.457143 1550.778676 342.676068 1562.847372 330.607372 
C 1574.916068 318.538676 1581.697143 302.167714 1581.697143 285.1 
C 1581.697143 268.032286 1574.916068 251.661324 1562.847372 239.592628 
C 1550.778676 227.523932 1534.407714 220.742857 1517.34 220.742857 
C 1500.272286 220.742857 1483.901324 227.523932 1471.832628 239.592628 
C 1459.763932 251.661324 1452.982857 268.032286 1452.982857 285.1 
C 1452.982857 302.167714 1459.763932 318.538676 1471.832628 330.607372 
C 1483.901324 342.676068 1500.272286 349.457143 1517.34 349.457143 
z
" style="fill:#ffffff;stroke:#ffffff;stroke-linejoin:miter;"/>
   </g>
   <g id="patch_14">
    <path clip-path="url(#p8a46375c5b)" d="M 1350.011429 516.785714 
L 1684.668571 516.785714 
L 1684.668571 53.414286 
L 1350.011429 53.414286 
z
" style="fill:none;stroke:#000000;stroke-linejoin:miter;stroke-width:3;"/>
   </g>
   <g id="matplotlib.axis_7"/>
   <g id="matplotlib.axis_8"/>
   <g id="text_4">
    <!-- 2 -->
    <g style="fill:#ffffff;" transform="translate(1416.693125 289.976875)scale(0.18 -0.18)">
     <use xlink:href="#TrebuchetMS-Bold-50"/>
    </g>
   </g>
   <g id="text_5">
    <!-- 2 -->
    <g style="fill:#ffffff;" transform="translate(1607.44 289.976875)scale(0.18 -0.18)">
     <use xlink:href="#TrebuchetMS-Bold-50"/>
    </g>
   </g>
   <g id="text_6">
    <g clip-path="url(#p8a46375c5b)">
     <!-- 4 -->
     <g transform="translate(1503.181429 303.12)scale(0.48 -0.48)">
      <defs>
       <path d="M 48.046875 18.703125 
L 48.046875 0 
L 35.84375 0 
L 35.84375 18.703125 
L 3.265625 18.703125 
L 3.265625 25.984375 
L 42.484375 71.828125 
L 48.046875 71.828125 
L 48.046875 28.765625 
L 55.28125 28.765625 
L 55.28125 18.703125 
z
M 35.84375 50.25 
L 17.484375 28.765625 
L 35.84375 28.765625 
z
" id="TrebuchetMS-Bold-52"/>
      </defs>
      <use xlink:href="#TrebuchetMS-Bold-52"/>
     </g>
    </g>
   </g>
  </g>
  <g id="axes_5">
   <g id="patch_15">
    <path d="M 2075.894286 285.1 
C 2075.894286 268.197395 2072.564841 251.459146 2066.096494 235.843175 
C 2059.628147 220.227204 2050.146691 206.037202 2038.194744 194.085256 
C 2026.242798 182.133309 2012.052796 172.651853 1996.436825 166.183506 
C 1980.820854 159.715159 1964.082605 156.385714 1947.18 156.385714 
C 1930.277395 156.385714 1913.539146 159.715159 1897.923175 166.183506 
C 1882.307204 172.651853 1868.117202 182.133309 1856.165256 194.085256 
C 1844.213309 206.037202 1834.731853 220.227204 1828.263506 235.843175 
C 1821.795159 251.459146 1818.465714 268.197395 1818.465714 285.1 
C 1818.465714 302.002605 1821.795159 318.740854 1828.263506 334.356825 
C 1834.731853 349.972796 1844.213309 364.162798 1856.165256 376.114744 
C 1868.117202 388.066691 1882.307204 397.548147 1897.923175 404.016494 
C 1913.539146 410.484841 1930.277395 413.814286 1947.18 413.814286 
C 1964.082605 413.814286 1980.820854 410.484841 1996.436825 404.016494 
C 2012.052796 397.548147 2026.242798 388.066691 2038.194744 376.114744 
C 2050.146691 364.162798 2059.628147 349.972796 2066.096494 334.356825 
C 2072.564841 318.740854 2075.894286 302.002605 2075.894286 285.1 
M 1947.18 285.1 
M 2075.894286 285.1 
z
" style="fill:#66b9f7;stroke:#ffffff;stroke-linejoin:miter;stroke-width:5;"/>
   </g>
   <g id="patch_16">
    <path clip-path="url(#p78afc8c22a)" d="M 1947.18 349.457143 
C 1964.247714 349.457143 1980.618676 342.676068 1992.687372 330.607372 
C 2004.756068 318.538676 2011.537143 302.167714 2011.537143 285.1 
C 2011.537143 268.032286 2004.756068 251.661324 1992.687372 239.592628 
C 1980.618676 227.523932 1964.247714 220.742857 1947.18 220.742857 
C 1930.112286 220.742857 1913.741324 227.523932 1901.672628 239.592628 
C 1889.603932 251.661324 1882.822857 268.032286 1882.822857 285.1 
C 1882.822857 302.167714 1889.603932 318.538676 1901.672628 330.607372 
C 1913.741324 342.676068 1930.112286 349.457143 1947.18 349.457143 
z
" style="fill:#ffffff;stroke:#ffffff;stroke-linejoin:miter;"/>
   </g>
   <g id="patch_17">
    <path clip-path="url(#p78afc8c22a)" d="M 1779.851429 516.785714 
L 2114.508571 516.785714 
L 2114.508571 53.414286 
L 1779.851429 53.414286 
z
" style="fill:none;stroke:#000000;stroke-linejoin:miter;stroke-width:3;"/>
   </g>
   <g id="matplotlib.axis_9"/>
   <g id="matplotlib.axis_10"/>
   <g id="text_7">
    <g clip-path="url(#p78afc8c22a)">
     <!-- 5 -->
     <g transform="translate(1933.021429 303.12)scale(0.48 -0.48)">
      <defs>
       <path d="M 8.0625 5.421875 
L 13.09375 15.875 
Q 20.84375 9.8125 26.421875 9.8125 
Q 38.71875 9.8125 38.71875 24.953125 
Q 38.71875 32.234375 35.9375 35.578125 
Q 33.15625 38.921875 26.609375 38.921875 
Q 20.703125 38.921875 15.09375 33.109375 
L 10.0625 36.375 
L 10.0625 71.828125 
L 48.578125 71.828125 
L 48.578125 61.03125 
L 22.265625 61.03125 
L 22.265625 48.25 
Q 25.484375 49.703125 29.984375 49.703125 
Q 40.53125 49.703125 46.21875 43.59375 
Q 51.90625 37.5 51.90625 26.3125 
Q 51.90625 -0.984375 26.46875 -0.984375 
Q 15.921875 -0.984375 8.0625 5.421875 
z
" id="TrebuchetMS-Bold-53"/>
      </defs>
      <use xlink:href="#TrebuchetMS-Bold-53"/>
     </g>
    </g>
   </g>
  </g>
  <g id="axes_6">
   <g id="patch_18">
    <path d="M 227.82 728.785714 
C 193.695941 728.785714 160.934609 742.355902 136.805256 766.485256 
C 112.675902 790.614609 99.105714 823.375941 99.105714 857.5 
C 99.105714 891.624059 112.675902 924.385391 136.805256 948.514744 
C 160.934609 972.644098 193.695941 986.214286 227.82 986.214286 
L 227.82 857.5 
L 227.82 728.785714 
z
" style="fill:#fdac2b;stroke:#ffffff;stroke-linejoin:miter;stroke-width:5;"/>
   </g>
   <g id="patch_19">
    <path d="M 227.82 986.214286 
C 261.944059 986.214286 294.705391 972.644098 318.834744 948.514744 
C 342.964098 924.385391 356.534286 891.624059 356.534286 857.5 
C 356.534286 823.375941 342.964098 790.614609 318.834744 766.485256 
C 294.705391 742.355902 261.944059 728.785714 227.82 728.785714 
L 227.82 857.5 
L 227.82 986.214286 
z
" style="fill:#82be5a;stroke:#ffffff;stroke-linejoin:miter;stroke-width:5;"/>
   </g>
   <g id="patch_20">
    <path clip-path="url(#p6806631cc8)" d="M 227.82 921.857143 
C 244.887714 921.857143 261.258676 915.076068 273.327372 903.007372 
C 285.396068 890.938676 292.177143 874.567714 292.177143 857.5 
C 292.177143 840.432286 285.396068 824.061324 273.327372 811.992628 
C 261.258676 799.923932 244.887714 793.142857 227.82 793.142857 
C 210.752286 793.142857 194.381324 799.923932 182.312628 811.992628 
C 170.243932 824.061324 163.462857 840.432286 163.462857 857.5 
C 163.462857 874.567714 170.243932 890.938676 182.312628 903.007372 
C 194.381324 915.076068 210.752286 921.857143 227.82 921.857143 
z
" style="fill:#ffffff;stroke:#ffffff;stroke-linejoin:miter;"/>
   </g>
   <g id="patch_21">
    <path clip-path="url(#p6806631cc8)" d="M 60.491429 1089.185714 
L 395.148571 1089.185714 
L 395.148571 625.814286 
L 60.491429 625.814286 
z
" style="fill:none;stroke:#000000;stroke-linejoin:miter;stroke-width:3;"/>
   </g>
   <g id="matplotlib.axis_11"/>
   <g id="matplotlib.axis_12"/>
   <g id="text_8">
    <!-- 2 -->
    <g style="fill:#ffffff;" transform="translate(127.173125 862.376875)scale(0.18 -0.18)">
     <use xlink:href="#TrebuchetMS-Bold-50"/>
    </g>
   </g>
   <g id="text_9">
    <!-- 3 -->
    <g style="fill:#ffffff;" transform="translate(317.92 862.376875)scale(0.18 -0.18)">
     <use xlink:href="#TrebuchetMS-Bold-51"/>
    </g>
   </g>
   <g id="text_10">
    <g clip-path="url(#p6806631cc8)">
     <!-- 6 -->
     <g transform="translate(213.661429 875.52)scale(0.48 -0.48)">
      <defs>
       <path d="M 37.109375 72.953125 
L 43.84375 65.828125 
Q 36.578125 62.015625 30.609375 55.8125 
Q 24.65625 49.609375 22.40625 43.5625 
Q 27.484375 45.84375 31.203125 45.84375 
Q 41.3125 45.84375 47.4375 39.5625 
Q 53.5625 33.296875 53.5625 22.609375 
Q 53.5625 12.0625 47.28125 5.53125 
Q 41.015625 -0.984375 31.453125 -0.984375 
Q 6.453125 -0.984375 6.453125 30.21875 
Q 6.453125 43.3125 16.09375 56.71875 
Q 25.734375 70.125 37.109375 72.953125 
z
M 19.625 22.859375 
Q 19.625 9.8125 30.71875 9.8125 
Q 35.25 9.8125 37.9375 13.0625 
Q 40.625 16.3125 40.625 22.125 
Q 40.625 28.078125 37.8125 31.5625 
Q 35.015625 35.0625 30.5625 35.0625 
Q 19.625 35.0625 19.625 22.859375 
z
" id="TrebuchetMS-Bold-54"/>
      </defs>
      <use xlink:href="#TrebuchetMS-Bold-54"/>
     </g>
    </g>
   </g>
  </g>
  <g id="axes_7">
   <g id="patch_22">
    <path d="M 786.374286 857.5 
C 786.374286 840.597395 783.044841 823.859146 776.576494 808.243175 
C 770.108147 792.627204 760.626691 778.437202 748.674744 766.485256 
C 736.722798 754.533309 722.532796 745.051853 706.916825 738.583506 
C 691.300854 732.115159 674.562605 728.785714 657.66 728.785714 
C 640.757395 728.785714 624.019146 732.115159 608.403175 738.583506 
C 592.787204 745.051853 578.597202 754.533309 566.645256 766.485256 
C 554.693309 778.437202 545.211853 792.627204 538.743506 808.243175 
C 532.275159 823.859146 528.945714 840.597395 528.945714 857.5 
C 528.945714 874.402605 532.275159 891.140854 538.743506 906.756825 
C 545.211853 922.372796 554.693309 936.562798 566.645256 948.514744 
C 578.597202 960.466691 592.787204 969.948147 608.403175 976.416494 
C 624.019146 982.884841 640.757395 986.214286 657.66 986.214286 
C 674.562605 986.214286 691.300854 982.884841 706.916825 976.416494 
C 722.532796 969.948147 736.722798 960.466691 748.674744 948.514744 
C 760.626691 936.562798 770.108147 922.372796 776.576494 906.756825 
C 783.044841 891.140854 786.374286 874.402605 786.374286 857.5 
M 657.66 857.5 
M 786.374286 857.5 
z
" style="fill:#9671c2;stroke:#ffffff;stroke-linejoin:miter;stroke-width:5;"/>
   </g>
   <g id="patch_23">
    <path clip-path="url(#pa4c1fa720b)" d="M 657.66 921.857143 
C 674.727714 921.857143 691.098676 915.076068 703.167372 903.007372 
C 715.236068 890.938676 722.017143 874.567714 722.017143 857.5 
C 722.017143 840.432286 715.236068 824.061324 703.167372 811.992628 
C 691.098676 799.923932 674.727714 793.142857 657.66 793.142857 
C 640.592286 793.142857 624.221324 799.923932 612.152628 811.992628 
C 600.083932 824.061324 593.302857 840.432286 593.302857 857.5 
C 593.302857 874.567714 600.083932 890.938676 612.152628 903.007372 
C 624.221324 915.076068 640.592286 921.857143 657.66 921.857143 
z
" style="fill:#ffffff;stroke:#ffffff;stroke-linejoin:miter;"/>
   </g>
   <g id="patch_24">
    <path clip-path="url(#pa4c1fa720b)" d="M 490.331429 1089.185714 
L 824.988571 1089.185714 
L 824.988571 625.814286 
L 490.331429 625.814286 
z
" style="fill:none;stroke:#000000;stroke-linejoin:miter;stroke-width:3;"/>
   </g>
   <g id="matplotlib.axis_13"/>
   <g id="matplotlib.axis_14"/>
   <g id="text_11">
    <g clip-path="url(#pa4c1fa720b)">
     <!-- 7 -->
     <g transform="translate(643.501429 875.52)scale(0.48 -0.48)">
      <defs>
       <path d="M 26.21875 0 
L 12.3125 0 
Q 20.265625 24.515625 39.65625 60.109375 
L 6.890625 60.109375 
L 6.890625 71.828125 
L 56.203125 71.828125 
L 56.203125 66.40625 
L 49.75 54.25 
Q 46.578125 48.09375 43.0625 40.796875 
Q 39.546875 33.5 36.21875 25.953125 
Q 32.90625 18.40625 30.359375 11.84375 
Q 27.828125 5.28125 26.21875 0 
z
" id="TrebuchetMS-Bold-55"/>
      </defs>
      <use xlink:href="#TrebuchetMS-Bold-55"/>
     </g>
    </g>
   </g>
  </g>
  <g id="axes_8">
   <g id="patch_25">
    <path d="M 1087.5 728.785714 
C 1064.907605 728.785714 1042.708443 734.733962 1023.142855 746.03016 
C 1003.577268 757.326357 987.326354 773.577272 976.030157 793.142861 
C 964.73396 812.708449 958.785713 834.907611 958.785714 857.500006 
C 958.785715 880.092401 964.733964 902.291563 976.030163 921.85715 
L 1087.5 857.5 
L 1087.5 728.785714 
z
" style="fill:#fdac2b;stroke:#ffffff;stroke-linejoin:miter;stroke-width:5;"/>
   </g>
   <g id="patch_26">
    <path d="M 976.030163 921.85715 
C 987.326361 941.422737 1003.577277 957.67365 1023.142866 968.969846 
C 1042.708455 980.266042 1064.907617 986.214288 1087.500012 986.214286 
C 1110.092407 986.214284 1132.291568 980.266034 1151.857155 968.969834 
C 1171.422742 957.673635 1187.673654 941.422718 1198.969849 921.857129 
L 1087.5 857.5 
L 976.030163 921.85715 
z
" style="fill:#fdac2b;stroke:#ffffff;stroke-linejoin:miter;stroke-width:5;"/>
   </g>
   <g id="patch_27">
    <path d="M 1198.969849 921.857129 
C 1210.266044 902.29154 1216.214289 880.092377 1216.214286 857.499982 
C 1216.214283 834.907587 1210.266032 812.708426 1198.969831 793.14284 
C 1187.673631 773.577254 1171.422714 757.326342 1151.857124 746.030148 
C 1132.291534 734.733954 1110.092371 728.78571 1087.499976 728.785714 
L 1087.5 857.5 
L 1198.969849 921.857129 
z
" style="fill:#fdac2b;stroke:#ffffff;stroke-linejoin:miter;stroke-width:5;"/>
   </g>
   <g id="patch_28">
    <path clip-path="url(#p74ad954b32)" d="M 1087.5 921.857143 
C 1104.567714 921.857143 1120.938676 915.076068 1133.007372 903.007372 
C 1145.076068 890.938676 1151.857143 874.567714 1151.857143 857.5 
C 1151.857143 840.432286 1145.076068 824.061324 1133.007372 811.992628 
C 1120.938676 799.923932 1104.567714 793.142857 1087.5 793.142857 
C 1070.432286 793.142857 1054.061324 799.923932 1041.992628 811.992628 
C 1029.923932 824.061324 1023.142857 840.432286 1023.142857 857.5 
C 1023.142857 874.567714 1029.923932 890.938676 1041.992628 903.007372 
C 1054.061324 915.076068 1070.432286 921.857143 1087.5 921.857143 
z
" style="fill:#ffffff;stroke:#ffffff;stroke-linejoin:miter;"/>
   </g>
   <g id="patch_29">
    <path clip-path="url(#p74ad954b32)" d="M 920.171429 1089.185714 
L 1254.828571 1089.185714 
L 1254.828571 625.814286 
L 920.171429 625.814286 
z
" style="fill:none;stroke:#000000;stroke-linejoin:miter;stroke-width:3;"/>
   </g>
   <g id="matplotlib.axis_15"/>
   <g id="matplotlib.axis_16"/>
   <g id="text_12">
    <!-- 2 -->
    <g style="fill:#ffffff;" transform="translate(998.924235 817.326877)scale(0.18 -0.18)">
     <use xlink:href="#TrebuchetMS-Bold-50"/>
    </g>
   </g>
   <g id="text_13">
    <!-- 2 -->
    <g style="fill:#ffffff;" transform="translate(1087.500008 952.476875)scale(0.18 -0.18)">
     <use xlink:href="#TrebuchetMS-Bold-50"/>
    </g>
   </g>
   <g id="text_14">
    <!-- 2 -->
    <g style="fill:#ffffff;" transform="translate(1165.528882 817.326863)scale(0.18 -0.18)">
     <use xlink:href="#TrebuchetMS-Bold-50"/>
    </g>
   </g>
   <g id="text_15">
    <g clip-path="url(#p74ad954b32)">
     <!-- 8 -->
     <g transform="translate(1073.341429 875.52)scale(0.48 -0.48)">
      <defs>
       <path d="M 17.1875 39.15625 
Q 13.28125 41.796875 10.78125 46.140625 
Q 8.296875 50.484375 8.296875 54.828125 
Q 8.296875 63.09375 14.125 67.9375 
Q 19.96875 72.796875 29.109375 72.796875 
Q 38.921875 72.796875 44.4375 67.9375 
Q 49.953125 63.09375 49.953125 54.78125 
Q 49.953125 50.4375 46.875 45.578125 
Q 43.796875 40.71875 40.140625 38.765625 
Q 44.78125 36.625 48.703125 31 
Q 52.640625 25.390625 52.640625 20.453125 
Q 52.640625 10.296875 46.234375 4.65625 
Q 39.84375 -0.984375 28.859375 -0.984375 
Q 17.78125 -0.984375 11.75 4.53125 
Q 5.71875 10.0625 5.71875 20.453125 
Q 5.71875 25.828125 8.90625 31 
Q 12.109375 36.1875 17.1875 39.15625 
z
M 30.28125 44.046875 
Q 33.015625 45.3125 35.109375 48.75 
Q 37.203125 52.203125 37.203125 54.984375 
Q 37.203125 58.203125 34.984375 60.109375 
Q 32.765625 62.015625 29.109375 62.015625 
Q 21 62.015625 21 54.9375 
Q 21 51.8125 23.96875 48.5625 
Q 26.953125 45.3125 30.28125 44.046875 
z
M 27.734375 34.03125 
Q 18.40625 28.765625 18.40625 20.453125 
Q 18.40625 15.875 21.3125 12.84375 
Q 24.21875 9.8125 28.859375 9.8125 
Q 33.734375 9.8125 36.828125 12.46875 
Q 39.9375 15.140625 39.9375 19.484375 
Q 39.9375 26.90625 27.734375 34.03125 
z
" id="TrebuchetMS-Bold-56"/>
      </defs>
      <use xlink:href="#TrebuchetMS-Bold-56"/>
     </g>
    </g>
   </g>
  </g>
  <g id="axes_9">
   <g id="patch_30">
    <path d="M 1517.34 728.785714 
C 1483.215941 728.785714 1450.454609 742.355902 1426.325256 766.485256 
C 1402.195902 790.614609 1388.625714 823.375941 1388.625714 857.5 
C 1388.625714 891.624059 1402.195902 924.385391 1426.325256 948.514744 
C 1450.454609 972.644098 1483.215941 986.214286 1517.34 986.214286 
L 1517.34 857.5 
L 1517.34 728.785714 
z
" style="fill:#82be5a;stroke:#ffffff;stroke-linejoin:miter;stroke-width:5;"/>
   </g>
   <g id="patch_31">
    <path d="M 1517.34 986.214286 
C 1551.464059 986.214286 1584.225391 972.644098 1608.354744 948.514744 
C 1632.484098 924.385391 1646.054286 891.624059 1646.054286 857.5 
C 1646.054286 823.375941 1632.484098 790.614609 1608.354744 766.485256 
C 1584.225391 742.355902 1551.464059 728.785714 1517.34 728.785714 
L 1517.34 857.5 
L 1517.34 986.214286 
z
" style="fill:#82be5a;stroke:#ffffff;stroke-linejoin:miter;stroke-width:5;"/>
   </g>
   <g id="patch_32">
    <path clip-path="url(#peea9be6b39)" d="M 1517.34 921.857143 
C 1534.407714 921.857143 1550.778676 915.076068 1562.847372 903.007372 
C 1574.916068 890.938676 1581.697143 874.567714 1581.697143 857.5 
C 1581.697143 840.432286 1574.916068 824.061324 1562.847372 811.992628 
C 1550.778676 799.923932 1534.407714 793.142857 1517.34 793.142857 
C 1500.272286 793.142857 1483.901324 799.923932 1471.832628 811.992628 
C 1459.763932 824.061324 1452.982857 840.432286 1452.982857 857.5 
C 1452.982857 874.567714 1459.763932 890.938676 1471.832628 903.007372 
C 1483.901324 915.076068 1500.272286 921.857143 1517.34 921.857143 
z
" style="fill:#ffffff;stroke:#ffffff;stroke-linejoin:miter;"/>
   </g>
   <g id="patch_33">
    <path clip-path="url(#peea9be6b39)" d="M 1350.011429 1089.185714 
L 1684.668571 1089.185714 
L 1684.668571 625.814286 
L 1350.011429 625.814286 
z
" style="fill:none;stroke:#000000;stroke-linejoin:miter;stroke-width:3;"/>
   </g>
   <g id="matplotlib.axis_17"/>
   <g id="matplotlib.axis_18"/>
   <g id="text_16">
    <!-- 3 -->
    <g style="fill:#ffffff;" transform="translate(1416.693125 862.376875)scale(0.18 -0.18)">
     <use xlink:href="#TrebuchetMS-Bold-51"/>
    </g>
   </g>
   <g id="text_17">
    <!-- 3 -->
    <g style="fill:#ffffff;" transform="translate(1607.44 862.376875)scale(0.18 -0.18)">
     <use xlink:href="#TrebuchetMS-Bold-51"/>
    </g>
   </g>
   <g id="text_18">
    <g clip-path="url(#peea9be6b39)">
     <!-- 9 -->
     <g transform="translate(1503.181429 875.52)scale(0.48 -0.48)">
      <defs>
       <path d="M 22.125 -1.375 
L 15.375 5.765625 
Q 30.21875 13.96875 36.375 27.203125 
Q 33.109375 25.734375 28.03125 25.734375 
Q 17.96875 25.734375 11.8125 31.984375 
Q 5.671875 38.234375 5.671875 48.96875 
Q 5.671875 59.625 11.96875 66.203125 
Q 18.265625 72.796875 27.78125 72.796875 
Q 52.78125 72.796875 52.78125 41.359375 
Q 52.78125 28.265625 43.140625 14.859375 
Q 33.5 1.46875 22.125 -1.375 
z
M 18.609375 49.46875 
Q 18.609375 43.453125 21.4375 39.984375 
Q 24.265625 36.53125 28.65625 36.53125 
Q 39.59375 36.53125 39.59375 48.734375 
Q 39.59375 62.015625 28.515625 62.015625 
Q 23.96875 62.015625 21.28125 58.671875 
Q 18.609375 55.328125 18.609375 49.46875 
z
" id="TrebuchetMS-Bold-57"/>
      </defs>
      <use xlink:href="#TrebuchetMS-Bold-57"/>
     </g>
    </g>
   </g>
  </g>
  <g id="axes_10">
   <g id="patch_34">
    <path d="M 1947.18 728.785714 
C 1913.055941 728.785714 1880.294609 742.355902 1856.165256 766.485256 
C 1832.035902 790.614609 1818.465714 823.375941 1818.465714 857.5 
C 1818.465714 891.624059 1832.035902 924.385391 1856.165256 948.514744 
C 1880.294609 972.644098 1913.055941 986.214286 1947.18 986.214286 
L 1947.18 857.5 
L 1947.18 728.785714 
z
" style="fill:#fdac2b;stroke:#ffffff;stroke-linejoin:miter;stroke-width:5;"/>
   </g>
   <g id="patch_35">
    <path d="M 1947.18 986.214286 
C 1981.304059 986.214286 2014.065391 972.644098 2038.194744 948.514744 
C 2062.324098 924.385391 2075.894286 891.624059 2075.894286 857.5 
C 2075.894286 823.375941 2062.324098 790.614609 2038.194744 766.485256 
C 2014.065391 742.355902 1981.304059 728.785714 1947.18 728.785714 
L 1947.18 857.5 
L 1947.18 986.214286 
z
" style="fill:#66b9f7;stroke:#ffffff;stroke-linejoin:miter;stroke-width:5;"/>
   </g>
   <g id="patch_36">
    <path clip-path="url(#p340c61ce38)" d="M 1947.18 921.857143 
C 1964.247714 921.857143 1980.618676 915.076068 1992.687372 903.007372 
C 2004.756068 890.938676 2011.537143 874.567714 2011.537143 857.5 
C 2011.537143 840.432286 2004.756068 824.061324 1992.687372 811.992628 
C 1980.618676 799.923932 1964.247714 793.142857 1947.18 793.142857 
C 1930.112286 793.142857 1913.741324 799.923932 1901.672628 811.992628 
C 1889.603932 824.061324 1882.822857 840.432286 1882.822857 857.5 
C 1882.822857 874.567714 1889.603932 890.938676 1901.672628 903.007372 
C 1913.741324 915.076068 1930.112286 921.857143 1947.18 921.857143 
z
" style="fill:#ffffff;stroke:#ffffff;stroke-linejoin:miter;"/>
   </g>
   <g id="patch_37">
    <path clip-path="url(#p340c61ce38)" d="M 1779.851429 1089.185714 
L 2114.508571 1089.185714 
L 2114.508571 625.814286 
L 1779.851429 625.814286 
z
" style="fill:none;stroke:#000000;stroke-linejoin:miter;stroke-width:3;"/>
   </g>
   <g id="matplotlib.axis_19"/>
   <g id="matplotlib.axis_20"/>
   <g id="text_19">
    <!-- 2 -->
    <g style="fill:#ffffff;" transform="translate(1846.533125 862.376875)scale(0.18 -0.18)">
     <use xlink:href="#TrebuchetMS-Bold-50"/>
    </g>
   </g>
   <g id="text_20">
    <!-- 5 -->
    <g style="fill:#ffffff;" transform="translate(2037.28 862.376875)scale(0.18 -0.18)">
     <use xlink:href="#TrebuchetMS-Bold-53"/>
    </g>
   </g>
   <g id="text_21">
    <g clip-path="url(#p340c61ce38)">
     <!-- 10 -->
     <g transform="translate(1920.15 875.52)scale(0.48 -0.48)">
      <defs>
       <path d="M 3.65625 37.9375 
Q 3.65625 52.59375 10.8125 62.6875 
Q 17.96875 72.796875 29.9375 72.796875 
Q 54.890625 72.796875 54.890625 36.375 
Q 54.890625 19.34375 48.140625 9.171875 
Q 41.40625 -0.984375 29.25 -0.984375 
Q 16.15625 -0.984375 9.90625 8.390625 
Q 3.65625 17.78125 3.65625 37.9375 
z
M 16.84375 37.0625 
Q 16.84375 22.75 19.625 16.015625 
Q 22.40625 9.28125 28.859375 9.28125 
Q 35.84375 9.28125 38.765625 15.359375 
Q 41.703125 21.4375 41.703125 37.015625 
Q 41.703125 51.515625 38.890625 57.03125 
Q 36.078125 62.546875 29.6875 62.546875 
Q 16.84375 62.546875 16.84375 37.0625 
z
" id="TrebuchetMS-Bold-48"/>
      </defs>
      <use xlink:href="#TrebuchetMS-Bold-49"/>
      <use x="58.59375" xlink:href="#TrebuchetMS-Bold-48"/>
     </g>
    </g>
   </g>
  </g>
  <g id="axes_11">
   <g id="patch_38">
    <path d="M 356.534286 1429.9 
C 356.534286 1412.997395 353.204841 1396.259146 346.736494 1380.643175 
C 340.268147 1365.027204 330.786691 1350.837202 318.834744 1338.885256 
C 306.882798 1326.933309 292.692796 1317.451853 277.076825 1310.983506 
C 261.460854 1304.515159 244.722605 1301.185714 227.82 1301.185714 
C 210.917395 1301.185714 194.179146 1304.515159 178.563175 1310.983506 
C 162.947204 1317.451853 148.757202 1326.933309 136.805256 1338.885256 
C 124.853309 1350.837202 115.371853 1365.027204 108.903506 1380.643175 
C 102.435159 1396.259146 99.105714 1412.997395 99.105714 1429.9 
C 99.105714 1446.802605 102.435159 1463.540854 108.903506 1479.156825 
C 115.371853 1494.772796 124.853309 1508.962798 136.805256 1520.914744 
C 148.757202 1532.866691 162.947204 1542.348147 178.563175 1548.816494 
C 194.179146 1555.284841 210.917395 1558.614286 227.82 1558.614286 
C 244.722605 1558.614286 261.460854 1555.284841 277.076825 1548.816494 
C 292.692796 1542.348147 306.882798 1532.866691 318.834744 1520.914744 
C 330.786691 1508.962798 340.268147 1494.772796 346.736494 1479.156825 
C 353.204841 1463.540854 356.534286 1446.802605 356.534286 1429.9 
M 227.82 1429.9 
M 356.534286 1429.9 
z
" style="fill:#ff0000;stroke:#ffffff;stroke-linejoin:miter;stroke-width:5;"/>
   </g>
   <g id="patch_39">
    <path clip-path="url(#p1d82e96ee3)" d="M 227.82 1494.257143 
C 244.887714 1494.257143 261.258676 1487.476068 273.327372 1475.407372 
C 285.396068 1463.338676 292.177143 1446.967714 292.177143 1429.9 
C 292.177143 1412.832286 285.396068 1396.461324 273.327372 1384.392628 
C 261.258676 1372.323932 244.887714 1365.542857 227.82 1365.542857 
C 210.752286 1365.542857 194.381324 1372.323932 182.312628 1384.392628 
C 170.243932 1396.461324 163.462857 1412.832286 163.462857 1429.9 
C 163.462857 1446.967714 170.243932 1463.338676 182.312628 1475.407372 
C 194.381324 1487.476068 210.752286 1494.257143 227.82 1494.257143 
z
" style="fill:#ffffff;stroke:#ffffff;stroke-linejoin:miter;"/>
   </g>
   <g id="patch_40">
    <path clip-path="url(#p1d82e96ee3)" d="M 60.491429 1661.585714 
L 395.148571 1661.585714 
L 395.148571 1198.214286 
L 60.491429 1198.214286 
z
" style="fill:none;stroke:#000000;stroke-linejoin:miter;stroke-width:3;"/>
   </g>
   <g id="matplotlib.axis_21"/>
   <g id="matplotlib.axis_22"/>
   <g id="text_22">
    <g clip-path="url(#p1d82e96ee3)">
     <!-- 11 -->
     <g transform="translate(200.79 1447.92)scale(0.48 -0.48)">
      <use xlink:href="#TrebuchetMS-Bold-49"/>
      <use x="58.59375" xlink:href="#TrebuchetMS-Bold-49"/>
     </g>
    </g>
   </g>
  </g>
  <g id="axes_12">
   <g id="patch_41">
    <path d="M 657.66 1301.185714 
C 635.067605 1301.185714 612.868443 1307.133962 593.302855 1318.43016 
C 573.737268 1329.726357 557.486354 1345.977272 546.190157 1365.542861 
C 534.89396 1385.108449 528.945713 1407.307611 528.945714 1429.900006 
C 528.945715 1452.492401 534.893964 1474.691563 546.190163 1494.25715 
L 657.66 1429.9 
L 657.66 1301.185714 
z
" style="fill:#fdac2b;stroke:#ffffff;stroke-linejoin:miter;stroke-width:5;"/>
   </g>
   <g id="patch_42">
    <path d="M 546.190163 1494.25715 
C 557.486361 1513.822737 573.737277 1530.07365 593.302866 1541.369846 
C 612.868455 1552.666042 635.067617 1558.614288 657.660012 1558.614286 
C 680.252407 1558.614284 702.451568 1552.666034 722.017155 1541.369834 
C 741.582742 1530.073635 757.833654 1513.822718 769.129849 1494.257129 
L 657.66 1429.9 
L 546.190163 1494.25715 
z
" style="fill:#fdac2b;stroke:#ffffff;stroke-linejoin:miter;stroke-width:5;"/>
   </g>
   <g id="patch_43">
    <path d="M 769.129849 1494.257129 
C 780.426044 1474.69154 786.374289 1452.492377 786.374286 1429.899982 
C 786.374283 1407.307587 780.426032 1385.108426 769.129831 1365.54284 
C 757.833631 1345.977254 741.582714 1329.726342 722.017124 1318.430148 
C 702.451534 1307.133954 680.252371 1301.18571 657.659976 1301.185714 
L 657.66 1429.9 
L 769.129849 1494.257129 
z
" style="fill:#82be5a;stroke:#ffffff;stroke-linejoin:miter;stroke-width:5;"/>
   </g>
   <g id="patch_44">
    <path clip-path="url(#p1e6bd7473c)" d="M 657.66 1494.257143 
C 674.727714 1494.257143 691.098676 1487.476068 703.167372 1475.407372 
C 715.236068 1463.338676 722.017143 1446.967714 722.017143 1429.9 
C 722.017143 1412.832286 715.236068 1396.461324 703.167372 1384.392628 
C 691.098676 1372.323932 674.727714 1365.542857 657.66 1365.542857 
C 640.592286 1365.542857 624.221324 1372.323932 612.152628 1384.392628 
C 600.083932 1396.461324 593.302857 1412.832286 593.302857 1429.9 
C 593.302857 1446.967714 600.083932 1463.338676 612.152628 1475.407372 
C 624.221324 1487.476068 640.592286 1494.257143 657.66 1494.257143 
z
" style="fill:#ffffff;stroke:#ffffff;stroke-linejoin:miter;"/>
   </g>
   <g id="patch_45">
    <path clip-path="url(#p1e6bd7473c)" d="M 490.331429 1661.585714 
L 824.988571 1661.585714 
L 824.988571 1198.214286 
L 490.331429 1198.214286 
z
" style="fill:none;stroke:#000000;stroke-linejoin:miter;stroke-width:3;"/>
   </g>
   <g id="matplotlib.axis_23"/>
   <g id="matplotlib.axis_24"/>
   <g id="text_23">
    <!-- 2 -->
    <g style="fill:#ffffff;" transform="translate(569.084235 1389.726877)scale(0.18 -0.18)">
     <use xlink:href="#TrebuchetMS-Bold-50"/>
    </g>
   </g>
   <g id="text_24">
    <!-- 2 -->
    <g style="fill:#ffffff;" transform="translate(657.660008 1524.876875)scale(0.18 -0.18)">
     <use xlink:href="#TrebuchetMS-Bold-50"/>
    </g>
   </g>
   <g id="text_25">
    <!-- 3 -->
    <g style="fill:#ffffff;" transform="translate(735.688882 1389.726863)scale(0.18 -0.18)">
     <use xlink:href="#TrebuchetMS-Bold-51"/>
    </g>
   </g>
   <g id="text_26">
    <g clip-path="url(#p1e6bd7473c)">
     <!-- 12 -->
     <g transform="translate(630.63 1447.92)scale(0.48 -0.48)">
      <use xlink:href="#TrebuchetMS-Bold-49"/>
      <use x="58.59375" xlink:href="#TrebuchetMS-Bold-50"/>
     </g>
    </g>
   </g>
  </g>
  <g id="axes_13">
   <g id="patch_46">
    <path d="M 1216.214286 1429.9 
C 1216.214286 1412.997395 1212.884841 1396.259146 1206.416494 1380.643175 
C 1199.948147 1365.027204 1190.466691 1350.837202 1178.514744 1338.885256 
C 1166.562798 1326.933309 1152.372796 1317.451853 1136.756825 1310.983506 
C 1121.140854 1304.515159 1104.402605 1301.185714 1087.5 1301.185714 
C 1070.597395 1301.185714 1053.859146 1304.515159 1038.243175 1310.983506 
C 1022.627204 1317.451853 1008.437202 1326.933309 996.485256 1338.885256 
C 984.533309 1350.837202 975.051853 1365.027204 968.583506 1380.643175 
C 962.115159 1396.259146 958.785714 1412.997395 958.785714 1429.9 
C 958.785714 1446.802605 962.115159 1463.540854 968.583506 1479.156825 
C 975.051853 1494.772796 984.533309 1508.962798 996.485256 1520.914744 
C 1008.437202 1532.866691 1022.627204 1542.348147 1038.243175 1548.816494 
C 1053.859146 1555.284841 1070.597395 1558.614286 1087.5 1558.614286 
C 1104.402605 1558.614286 1121.140854 1555.284841 1136.756825 1548.816494 
C 1152.372796 1542.348147 1166.562798 1532.866691 1178.514744 1520.914744 
C 1190.466691 1508.962798 1199.948147 1494.772796 1206.416494 1479.156825 
C 1212.884841 1463.540854 1216.214286 1446.802605 1216.214286 1429.9 
M 1087.5 1429.9 
M 1216.214286 1429.9 
z
" style="fill:#ff0000;stroke:#ffffff;stroke-linejoin:miter;stroke-width:5;"/>
   </g>
   <g id="patch_47">
    <path clip-path="url(#p7ed8896c00)" d="M 1087.5 1494.257143 
C 1104.567714 1494.257143 1120.938676 1487.476068 1133.007372 1475.407372 
C 1145.076068 1463.338676 1151.857143 1446.967714 1151.857143 1429.9 
C 1151.857143 1412.832286 1145.076068 1396.461324 1133.007372 1384.392628 
C 1120.938676 1372.323932 1104.567714 1365.542857 1087.5 1365.542857 
C 1070.432286 1365.542857 1054.061324 1372.323932 1041.992628 1384.392628 
C 1029.923932 1396.461324 1023.142857 1412.832286 1023.142857 1429.9 
C 1023.142857 1446.967714 1029.923932 1463.338676 1041.992628 1475.407372 
C 1054.061324 1487.476068 1070.432286 1494.257143 1087.5 1494.257143 
z
" style="fill:#ffffff;stroke:#ffffff;stroke-linejoin:miter;"/>
   </g>
   <g id="patch_48">
    <path clip-path="url(#p7ed8896c00)" d="M 920.171429 1661.585714 
L 1254.828571 1661.585714 
L 1254.828571 1198.214286 
L 920.171429 1198.214286 
z
" style="fill:none;stroke:#000000;stroke-linejoin:miter;stroke-width:3;"/>
   </g>
   <g id="matplotlib.axis_25"/>
   <g id="matplotlib.axis_26"/>
   <g id="text_27">
    <g clip-path="url(#p7ed8896c00)">
     <!-- 13 -->
     <g transform="translate(1060.47 1447.92)scale(0.48 -0.48)">
      <use xlink:href="#TrebuchetMS-Bold-49"/>
      <use x="58.59375" xlink:href="#TrebuchetMS-Bold-51"/>
     </g>
    </g>
   </g>
  </g>
  <g id="axes_14">
   <g id="patch_49">
    <path d="M 1517.34 1301.185714 
C 1483.215941 1301.185714 1450.454609 1314.755902 1426.325256 1338.885256 
C 1402.195902 1363.014609 1388.625714 1395.775941 1388.625714 1429.9 
C 1388.625714 1464.024059 1402.195902 1496.785391 1426.325256 1520.914744 
C 1450.454609 1545.044098 1483.215941 1558.614286 1517.34 1558.614286 
L 1517.34 1429.9 
L 1517.34 1301.185714 
z
" style="fill:#fdac2b;stroke:#ffffff;stroke-linejoin:miter;stroke-width:5;"/>
   </g>
   <g id="patch_50">
    <path d="M 1517.34 1558.614286 
C 1551.464059 1558.614286 1584.225391 1545.044098 1608.354744 1520.914744 
C 1632.484098 1496.785391 1646.054286 1464.024059 1646.054286 1429.9 
C 1646.054286 1395.775941 1632.484098 1363.014609 1608.354744 1338.885256 
C 1584.225391 1314.755902 1551.464059 1301.185714 1517.34 1301.185714 
L 1517.34 1429.9 
L 1517.34 1558.614286 
z
" style="fill:#9671c2;stroke:#ffffff;stroke-linejoin:miter;stroke-width:5;"/>
   </g>
   <g id="patch_51">
    <path clip-path="url(#p3ec8034304)" d="M 1517.34 1494.257143 
C 1534.407714 1494.257143 1550.778676 1487.476068 1562.847372 1475.407372 
C 1574.916068 1463.338676 1581.697143 1446.967714 1581.697143 1429.9 
C 1581.697143 1412.832286 1574.916068 1396.461324 1562.847372 1384.392628 
C 1550.778676 1372.323932 1534.407714 1365.542857 1517.34 1365.542857 
C 1500.272286 1365.542857 1483.901324 1372.323932 1471.832628 1384.392628 
C 1459.763932 1396.461324 1452.982857 1412.832286 1452.982857 1429.9 
C 1452.982857 1446.967714 1459.763932 1463.338676 1471.832628 1475.407372 
C 1483.901324 1487.476068 1500.272286 1494.257143 1517.34 1494.257143 
z
" style="fill:#ffffff;stroke:#ffffff;stroke-linejoin:miter;"/>
   </g>
   <g id="patch_52">
    <path clip-path="url(#p3ec8034304)" d="M 1350.011429 1661.585714 
L 1684.668571 1661.585714 
L 1684.668571 1198.214286 
L 1350.011429 1198.214286 
z
" style="fill:none;stroke:#000000;stroke-linejoin:miter;stroke-width:3;"/>
   </g>
   <g id="matplotlib.axis_27"/>
   <g id="matplotlib.axis_28"/>
   <g id="text_28">
    <!-- 2 -->
    <g style="fill:#ffffff;" transform="translate(1416.693125 1434.776875)scale(0.18 -0.18)">
     <use xlink:href="#TrebuchetMS-Bold-50"/>
    </g>
   </g>
   <g id="text_29">
    <!-- 7 -->
    <g style="fill:#ffffff;" transform="translate(1607.44 1434.776875)scale(0.18 -0.18)">
     <use xlink:href="#TrebuchetMS-Bold-55"/>
    </g>
   </g>
   <g id="text_30">
    <g clip-path="url(#p3ec8034304)">
     <!-- 14 -->
     <g transform="translate(1490.31 1447.92)scale(0.48 -0.48)">
      <use xlink:href="#TrebuchetMS-Bold-49"/>
      <use x="58.59375" xlink:href="#TrebuchetMS-Bold-52"/>
     </g>
    </g>
   </g>
  </g>
  <g id="axes_15">
   <g id="patch_53">
    <path d="M 1947.18 1301.185714 
C 1913.055941 1301.185714 1880.294609 1314.755902 1856.165256 1338.885256 
C 1832.035902 1363.014609 1818.465714 1395.775941 1818.465714 1429.9 
C 1818.465714 1464.024059 1832.035902 1496.785391 1856.165256 1520.914744 
C 1880.294609 1545.044098 1913.055941 1558.614286 1947.18 1558.614286 
L 1947.18 1429.9 
L 1947.18 1301.185714 
z
" style="fill:#82be5a;stroke:#ffffff;stroke-linejoin:miter;stroke-width:5;"/>
   </g>
   <g id="patch_54">
    <path d="M 1947.18 1558.614286 
C 1981.304059 1558.614286 2014.065391 1545.044098 2038.194744 1520.914744 
C 2062.324098 1496.785391 2075.894286 1464.024059 2075.894286 1429.9 
C 2075.894286 1395.775941 2062.324098 1363.014609 2038.194744 1338.885256 
C 2014.065391 1314.755902 1981.304059 1301.185714 1947.18 1301.185714 
L 1947.18 1429.9 
L 1947.18 1558.614286 
z
" style="fill:#66b9f7;stroke:#ffffff;stroke-linejoin:miter;stroke-width:5;"/>
   </g>
   <g id="patch_55">
    <path clip-path="url(#p2c8edd3bd1)" d="M 1947.18 1494.257143 
C 1964.247714 1494.257143 1980.618676 1487.476068 1992.687372 1475.407372 
C 2004.756068 1463.338676 2011.537143 1446.967714 2011.537143 1429.9 
C 2011.537143 1412.832286 2004.756068 1396.461324 1992.687372 1384.392628 
C 1980.618676 1372.323932 1964.247714 1365.542857 1947.18 1365.542857 
C 1930.112286 1365.542857 1913.741324 1372.323932 1901.672628 1384.392628 
C 1889.603932 1396.461324 1882.822857 1412.832286 1882.822857 1429.9 
C 1882.822857 1446.967714 1889.603932 1463.338676 1901.672628 1475.407372 
C 1913.741324 1487.476068 1930.112286 1494.257143 1947.18 1494.257143 
z
" style="fill:#ffffff;stroke:#ffffff;stroke-linejoin:miter;"/>
   </g>
   <g id="patch_56">
    <path clip-path="url(#p2c8edd3bd1)" d="M 1779.851429 1661.585714 
L 2114.508571 1661.585714 
L 2114.508571 1198.214286 
L 1779.851429 1198.214286 
z
" style="fill:none;stroke:#000000;stroke-linejoin:miter;stroke-width:3;"/>
   </g>
   <g id="matplotlib.axis_29"/>
   <g id="matplotlib.axis_30"/>
   <g id="text_31">
    <!-- 3 -->
    <g style="fill:#ffffff;" transform="translate(1846.533125 1434.776875)scale(0.18 -0.18)">
     <use xlink:href="#TrebuchetMS-Bold-51"/>
    </g>
   </g>
   <g id="text_32">
    <!-- 5 -->
    <g style="fill:#ffffff;" transform="translate(2037.28 1434.776875)scale(0.18 -0.18)">
     <use xlink:href="#TrebuchetMS-Bold-53"/>
    </g>
   </g>
   <g id="text_33">
    <g clip-path="url(#p2c8edd3bd1)">
     <!-- 15 -->
     <g transform="translate(1920.15 1447.92)scale(0.48 -0.48)">
      <use xlink:href="#TrebuchetMS-Bold-49"/>
      <use x="58.59375" xlink:href="#TrebuchetMS-Bold-53"/>
     </g>
    </g>
   </g>
  </g>
 </g>
 <defs>
  <clipPath id="pd0ff24509e">
   <rect height="540.6" width="388.04" x="33.8" y="14.8"/>
  </clipPath>
  <clipPath id="p6e29eff6f0">
   <rect height="540.6" width="388.04" x="463.64" y="14.8"/>
  </clipPath>
  <clipPath id="pfd4c2209cb">
   <rect height="540.6" width="388.04" x="893.48" y="14.8"/>
  </clipPath>
  <clipPath id="p8a46375c5b">
   <rect height="540.6" width="388.04" x="1323.32" y="14.8"/>
  </clipPath>
  <clipPath id="p78afc8c22a">
   <rect height="540.6" width="388.04" x="1753.16" y="14.8"/>
  </clipPath>
  <clipPath id="p6806631cc8">
   <rect height="540.6" width="388.04" x="33.8" y="587.2"/>
  </clipPath>
  <clipPath id="pa4c1fa720b">
   <rect height="540.6" width="388.04" x="463.64" y="587.2"/>
  </clipPath>
  <clipPath id="p74ad954b32">
   <rect height="540.6" width="388.04" x="893.48" y="587.2"/>
  </clipPath>
  <clipPath id="peea9be6b39">
   <rect height="540.6" width="388.04" x="1323.32" y="587.2"/>
  </clipPath>
  <clipPath id="p340c61ce38">
   <rect height="540.6" width="388.04" x="1753.16" y="587.2"/>
  </clipPath>
  <clipPath id="p1d82e96ee3">
   <rect height="540.6" width="388.04" x="33.8" y="1159.6"/>
  </clipPath>
  <clipPath id="p1e6bd7473c">
   <rect height="540.6" width="388.04" x="463.64" y="1159.6"/>
  </clipPath>
  <clipPath id="p7ed8896c00">
   <rect height="540.6" width="388.04" x="893.48" y="1159.6"/>
  </clipPath>
  <clipPath id="p3ec8034304">
   <rect height="540.6" width="388.04" x="1323.32" y="1159.6"/>
  </clipPath>
  <clipPath id="p2c8edd3bd1">
   <rect height="540.6" width="388.04" x="1753.16" y="1159.6"/>
  </clipPath>
 </defs>
</svg>
